:version 1.10
:name ASF
:units
  mass 1
  length 1
  angle deg
:documentation
  ASF file generated by Kaydara
:root
  axis xyz
  order  tx ty tz rx ry rz
  position 0 0 0
  orientation 0 0 0
:bonedata
  begin
    id 1
    name RightUpLegDummy
    direction -0.718183 -0.695806 0.00816078
    length 4.904
    axis 0 0 0 xyz
  end
  begin
    id 2
    name RightUpLeg
    direction 3.53373e-006 -0.995788 0.0916898
    length 17.4976
    axis -3.49089 -0.000906625 0.000286804 xyz
    dof rx ry rz
  end
  begin
    id 3
    name RightLeg
    direction 0.00371092 -0.995096 -0.0988419
    length 16.5821
    axis 3.68512 0.0193738 -0.131023 xyz
    dof rx ry rz
  end
  begin
    id 4
    name RightFoot
    direction 0.00079151 -0.46099 0.887405
    length 3.77069
    axis 4.81691e-005 -0.120479 -0.188788 xyz
    dof rx ry rz
  end
  begin
    id 5
    name RightToes
    direction 0.00124746 -0.014064 0.9999
    length 3.85082
    axis 0.000481921 0.542163 -0.142578 xyz
    dof rx ry rz
  end
  begin
    id 6
    name SpineDummy
    direction 8.3039e-015 1 4.57515e-016
    length 4.6813
    axis 0 0 0 xyz
  end
  begin
    id 7
    name Spine
    direction -3.15643e-008 0.999988 0.00495137
    length 10.1015
    axis -0.001389 0.000121418 2.40972e-006 xyz
    dof rx ry rz
  end
  begin
    id 8
    name Spine1
    direction 0 0 0
    length 0
    axis -0.001389 0.000121451 1.30017e-006 xyz
    dof rx ry rz
  end
  begin
    id 9
    name HEadDummy
    direction -1.99912e-008 0.999999 0.00127422
    length 3.43865
    axis -0.001389 0.000121451 1.30017e-006 xyz
  end
  begin
    id 10
    name HEad
    direction -0.0222688 0.980941 0.193023
    length 5.12695
    axis -0.001389 0.000121451 1.30017e-006 xyz
    dof rx ry rz
  end
  begin
    id 11
    name LeftShoulder1Dummy
    direction 0.998891 -0.0402509 -0.0244456
    length 3.5433
    axis -0.001389 0.000121451 1.30017e-006 xyz
  end
  begin
    id 12
    name LeftShoulder1
    direction 0.99951 -0.000327763 0.0313091
    length 4.05031
    axis -0.001389 0.000121451 1.30017e-006 xyz
    dof rx ry rz
  end
  begin
    id 13
    name LeftArm
    direction 0.998561 -0.00100056 -0.0536182
    length 10.3537
    axis -23.1894 0.134784 0.967509 xyz
    dof rx ry rz
  end
  begin
    id 14
    name LeftForeArm
    direction 0.998903 0.00866432 0.046012
    length 8.70632
    axis -9.91835 -0.06569 -0.177794 xyz
    dof rx ry rz
  end
  begin
    id 15
    name LeftHand
    direction 0.992938 -0.0411637 0.11126
    length 5.32135
    axis -0.00960232 -0.00340091 0.185173 xyz
    dof rx ry rz
  end
  begin
    id 16
    name RightShoulderDummy
    direction -0.998891 -0.0402509 -0.0244414
    length 3.5433
    axis -0.001389 0.000121451 1.30017e-006 xyz
  end
  begin
    id 17
    name RightShoulder
    direction -0.99951 -0.000327807 0.0313133
    length 4.05031
    axis 0.215806 0.000203643 -0.0068026 xyz
    dof rx ry rz
  end
  begin
    id 18
    name RightArm
    direction -0.998573 -0.000999564 -0.053403
    length 10.3947
    axis -23.2009 -0.134239 -0.964101 xyz
    dof rx ry rz
  end
  begin
    id 19
    name RightForeArm
    direction -0.998898 0.00868028 0.0461306
    length 8.68355
    axis -9.92322 0.0658061 0.178868 xyz
    dof rx ry rz
  end
  begin
    id 20
    name RightHand
    direction -0.992843 -0.0414603 0.112003
    length 5.28593
    axis -0.00960638 0.00330671 -0.185228 xyz
    dof rx ry rz
  end
  begin
    id 21
    name LeftUpLegDummy
    direction 0.718183 -0.695806 0.00816078
    length 4.904
    axis 0 0 0 xyz
  end
  begin
    id 22
    name LeftUpLeg
    direction -6.81752e-006 -0.995793 0.0916337
    length 17.4976
    axis -3.48766 0.00143442 -0.000524262 xyz
    dof rx ry rz
  end
  begin
    id 23
    name LeftLeg
    direction -0.00601358 -0.995091 -0.0987824
    length 16.5821
    axis 3.68178 -0.00654042 -0.000285133 xyz
    dof rx ry rz
  end
  begin
    id 24
    name LeftFoot
    direction -0.00417578 -0.460984 0.887399
    length 3.77069
    axis 1.87233e-006 4.66016e-005 -8.6538e-006 xyz
    dof rx ry rz
  end
  begin
    id 25
    name LeftToes
    direction 0.00818058 -0.00485161 0.999955
    length 3.85048
    axis 1.06247e-005 4.65869e-005 -8.65513e-006 xyz
    dof rx ry rz
  end
:hierarchy
  begin
    root RightUpLegDummy SpineDummy LeftUpLegDummy
    RightUpLegDummy RightUpLeg
    RightUpLeg RightLeg
    RightLeg RightFoot
    RightFoot RightToes
    SpineDummy Spine
    Spine Spine1
    Spine1 HEadDummy LeftShoulder1Dummy RightShoulderDummy
    HEadDummy HEad
    LeftShoulder1Dummy LeftShoulder1
    LeftShoulder1 LeftArm
    LeftArm LeftForeArm
    LeftForeArm LeftHand
    RightShoulderDummy RightShoulder
    RightShoulder RightArm
    RightArm RightForeArm
    RightForeArm RightHand
    LeftUpLegDummy LeftUpLeg
    LeftUpLeg LeftLeg
    LeftLeg LeftFoot
    LeftFoot LeftToes
  end

:SAMPLES-PER-SECOND 30
:FRAME-RANGE 1-2643
:FULLY-SPECIFIED
:DEGREES
83
root  42.3973 35.5736 7.14153 -6.97539 29.0017 -2.17765
RightUpLeg  -27.67 -16.9739 -3.20708
RightLeg  80.0726 -1.55837 -12.9059
RightFoot  -3.89866 -0.514042 7.48343
RightToes  7.56698e-010 0 -3.6325e-017
Spine  17.1567 2.19966 1.31469
Spine1  -0.60894 2.34923 0.0835672
HEad  2.87931 -31.805 5.16523
LeftShoulder1  1.48394 -1.13975 -25.7903
LeftArm  5.00446 -0.411009 -21.7684
LeftForeArm  19.0017 -40.3897 -8.30371
LeftHand  0.162827 -2.30199 -2.27599
RightShoulder  10.3533 18.0601 41.7203
RightArm  -20.7466 15.2525 5.87655
RightForeArm  19.9106 49.1126 11.4708
RightHand  -0.491465 2.20109 -7.7038
LeftUpLeg  -33.2437 19.8835 -6.39549
LeftLeg  41.7598 4.1464 4.36391
LeftFoot  -3.99052 -0.679212 10.9134
LeftToes  1.48244e-010 1.61973e-010 3.308e-011
84
root  42.7265 35.2894 8.49729 -6.91736 32.8997 -0.772289
RightUpLeg  -31.9459 -15.553 -6.812
RightLeg  75.8519 -2.7188 -13.5836
RightFoot  -6.18833 -0.402332 7.99058
RightToes  7.56698e-010 0 -3.6325e-017
Spine  19.2783 1.18495 -0.249452
Spine1  -0.724416 1.18763 -0.0573624
HEad  0.927114 -32.9013 5.98778
LeftShoulder1  1.61381 -1.6311 -25.2446
LeftArm  3.17934 -6.02154 -24.2644
LeftForeArm  21.8298 -44.2092 -9.38966
LeftHand  0.168634 -2.20541 -2.40234
RightShoulder  9.75391 17.4376 40.3781
RightArm  -23.0924 14.5213 4.83303
RightForeArm  18.8514 50.5316 12.2003
RightHand  -0.484661 1.59825 -8.20734
LeftUpLeg  -32.1131 18.2897 -7.14566
LeftLeg  45.5462 3.18883 3.90972
LeftFoot  -7.60375 -0.303368 10.6713
LeftToes  1.48244e-010 1.61973e-010 3.308e-011
85
root  43.0609 35.1712 9.73897 -6.67573 36.6356 -0.919535
RightUpLeg  -34.7964 -14.2429 -9.50757
RightLeg  66.5062 -5.2712 -13.7394
RightFoot  -5.84141 -0.507237 9.70802
RightToes  7.56698e-010 0 -3.6325e-017
Spine  20.9716 0.106319 -0.592898
Spine1  -2.06351 -0.12454 1.16993
HEad  0.447425 -33.3365 5.67339
LeftShoulder1  1.7746 -2.17932 -25.0385
LeftArm  4.5331 -10.0211 -27.0881
LeftForeArm  25.5679 -48.841 -10.9108
LeftHand  0.203958 -2.16978 -2.96077
RightShoulder  8.61197 15.9894 38.1085
RightArm  -20.5813 13.9163 4.58967
RightForeArm  18.9277 52.8437 13.3482
RightHand  -0.431494 1.40959 -7.51297
LeftUpLeg  -31.5226 16.2273 -6.55965
LeftLeg  48.2442 2.13594 3.01546
LeftFoot  -11.1522 0.0516933 9.39507
LeftToes  1.48244e-010 1.61973e-010 3.308e-011
86
root  43.3575 35.0203 10.934 -6.55539 39.8679 -1.61592
RightUpLeg  -36.1783 -12.4506 -12.3132
RightLeg  55.5549 -7.6828 -12.2623
RightFoot  -4.70715 -0.639617 10.4533
RightToes  7.56698e-010 0 -3.6325e-017
Spine  21.9548 -0.414706 -0.499174
Spine1  -2.70131 -1.15502 3.75721
HEad  -0.935914 -34.095 6.30612
LeftShoulder1  1.90885 -2.79128 -24.0979
LeftArm  7.23975 -13.4062 -30.9642
LeftForeArm  30.1254 -52.7403 -12.3355
LeftHand  0.277636 -2.74173 -3.75923
RightShoulder  7.51418 14.5583 35.6204
RightArm  -16.1965 12.8991 4.37419
RightForeArm  21.6478 55.3316 14.507
RightHand  -0.410246 1.45199 -7.10945
LeftUpLeg  -31.5412 15.0539 -5.33984
LeftLeg  51.1389 0.690631 1.38934
LeftFoot  -13.9516 0.270729 8.18018
LeftToes  1.48244e-010 1.61973e-010 3.308e-011
87
root  43.5773 34.8402 12.2254 -6.43406 41.7001 -1.98108
RightUpLeg  -36.8444 -10.1388 -14.8908
RightLeg  45.6289 -9.09256 -10.1224
RightFoot  -4.45043 -0.649275 10.253
RightToes  7.56698e-010 0 -3.6325e-017
Spine  22.045 -0.578823 -0.236505
Spine1  -2.08857 -1.4968 4.59557
HEad  -2.07683 -35.2154 7.69778
LeftShoulder1  1.94341 -3.2363 -22.5306
LeftArm  8.36426 -15.5635 -33.9348
LeftForeArm  36.8119 -56.2465 -13.647
LeftHand  0.319486 -3.41957 -3.97026
RightShoulder  7.01825 13.9485 34.2589
RightArm  -12.7293 11.1655 4.5961
RightForeArm  25.4189 57.4751 15.5059
RightHand  -0.39197 1.5568 -6.70521
LeftUpLeg  -31.3988 16.0608 -3.78107
LeftLeg  54.0714 -0.89452 -0.831639
LeftFoot  -16.6097 0.436363 7.30132
LeftToes  1.48244e-010 1.61973e-010 3.308e-011
88
root  43.7641 34.6343 13.6198 -6.51715 43.1378 -2.44335
RightUpLeg  -36.8782 -10.2885 -16.0238
RightLeg  37.7136 -8.04061 -6.8833
RightFoot  -3.82158 -0.762844 11.1771
RightToes  7.56698e-010 0 -3.6325e-017
Spine  21.8585 -0.781118 -0.109776
Spine1  -1.83658 -1.79337 5.16294
HEad  -1.94085 -36.5037 8.39342
LeftShoulder1  1.93455 -3.30392 -22.0896
LeftArm  6.61623 -16.0623 -34.6891
LeftForeArm  40.5136 -57.2041 -13.8817
LeftHand  0.188573 -3.37542 -2.25844
RightShoulder  7.05579 13.7162 35.0134
RightArm  -10.9211 9.69225 4.33529
RightForeArm  27.8818 58.9425 16.2831
RightHand  -0.38372 1.91841 -6.27032
LeftUpLeg  -30.9857 16.7167 -1.76008
LeftLeg  56.8429 -1.6208 -2.14608
LeftFoot  -19.281 0.555985 6.33329
LeftToes  1.48244e-010 1.61973e-010 3.308e-011
89
root  43.8948 34.4744 15.1067 -6.56579 44.7984 -2.33138
RightUpLeg  -36.1451 -13.8204 -15.6598
RightLeg  33.2949 -7.16985 -5.29018
RightFoot  -2.51324 -0.98938 12.5473
RightToes  7.56698e-010 0 -3.6325e-017
Spine  21.9437 -0.725536 -0.847604
Spine1  -2.0717 -2.01992 6.21901
HEad  -1.79153 -38.5533 9.02753
LeftShoulder1  1.85229 -3.02934 -22.019
LeftArm  1.70504 -15.5926 -34.4714
LeftForeArm  35.5081 -53.8317 -12.4355
LeftHand  0.0569981 -2.80927 -0.592594
RightShoulder  7.07004 12.8097 37.3357
RightArm  -11.7392 8.83073 3.44528
RightForeArm  30.2471 59.214 16.2359
RightHand  -0.42561 1.95062 -6.90742
LeftUpLeg  -29.7152 15.8662 0.201126
LeftLeg  58.7997 -1.77762 -2.615
LeftFoot  -21.6774 0.568488 4.84109
LeftToes  1.48244e-010 1.61973e-010 3.308e-011
90
root  44.0127 34.3102 16.6412 -6.81951 45.8866 -1.95473
RightUpLeg  -35.1884 -18.5001 -13.8221
RightLeg  33.0366 -10.5054 -7.51916
RightFoot  -2.49479 -0.854253 10.7926
RightToes  7.56698e-010 0 -3.6325e-017
Spine  21.7055 -0.570249 -0.790766
Spine1  -1.79622 -1.91506 6.52377
HEad  -1.33634 -41.2094 9.19363
LeftShoulder1  1.79948 -2.72425 -22.5901
LeftArm  -4.18397 -14.7479 -31.8984
LeftForeArm  28.0499 -48.0511 -10.396
LeftHand  0.034929 -1.93036 -0.389259
RightShoulder  6.83019 11.2354 40.2294
RightArm  -13.97 8.2423 2.62345
RightForeArm  30.94 59.1833 16.1414
RightHand  -0.52322 1.52531 -8.93413
LeftUpLeg  -27.6688 14.6133 2.39169
LeftLeg  60.4061 -1.84918 -2.94591
LeftFoot  -24.1299 0.464309 2.84798
LeftToes  1.48244e-010 1.61973e-010 3.308e-011
91
root  44.1545 34.2196 18.1347 -7.56154 45.749 -2.24487
RightUpLeg  -34.3364 -21.7598 -10.9053
RightLeg  33.3032 -11.6885 -8.40242
RightFoot  1.46889 -0.556825 5.04561
RightToes  7.56698e-010 0 -3.6325e-017
Spine  21.2847 -0.511543 0.927356
Spine1  -1.43314 -1.574 6.39875
HEad  -0.420041 -43.2196 8.73256
LeftShoulder1  1.72206 -2.36256 -23.0752
LeftArm  -7.2352 -11.4891 -27.2773
LeftForeArm  23.3158 -43.2704 -8.95978
LeftHand  0.00831854 -1.51202 -0.00180847
RightShoulder  6.45552 9.78184 42.3559
RightArm  -15.4856 7.17846 2.62082
RightForeArm  30.0963 59.4483 16.4251
RightHand  -0.531605 1.36344 -9.27894
LeftUpLeg  -25.3161 14.0962 5.36043
LeftLeg  61.6531 -2.02998 -3.48843
LeftFoot  -26.0732 0.178875 0.171225
LeftToes  1.48244e-010 1.61973e-010 3.308e-011
92
root  44.2607 34.0233 19.7844 -6.93993 44.5874 -0.769714
RightUpLeg  -34.9806 -21.3979 -10.8788
RightLeg  36.5521 -8.2161 -6.75788
RightFoot  9.39582 -0.793863 4.68989
RightToes  7.56698e-010 0 -3.6325e-017
Spine  21.298 -0.125626 0.814466
Spine1  -1.60045 -0.91438 5.43562
HEad  -0.737981 -44.4761 9.3111
LeftShoulder1  1.51749 -1.66991 -23.0438
LeftArm  -8.13343 -5.99234 -23.2024
LeftForeArm  22.7109 -41.7181 -8.48384
LeftHand  0.0596267 -1.99424 -0.770158
RightShoulder  6.08856 8.87163 42.9278
RightArm  -13.6445 6.24012 2.9412
RightForeArm  28.4362 60.0127 17.0338
RightHand  -0.5477 0.762938 -10.435
LeftUpLeg  -22.8573 14.1984 7.68358
LeftLeg  63.3665 -2.52929 -4.85916
LeftFoot  -27.3262 -0.329725 -3.51768
LeftToes  1.48244e-010 1.61973e-010 3.308e-011
93
root  44.3415 33.8419 21.3563 -6.17458 42.4188 0.583335
RightUpLeg  -37.2436 -20.8867 -9.91338
RightLeg  43.2683 -6.55488 -6.86842
RightFoot  5.20256 -0.556094 4.06804
RightToes  7.56698e-010 0 -3.6325e-017
Spine  21.0042 0.194455 0.802313
Spine1  -1.42999 -0.104242 3.629
HEad  -2.95722 -45.0357 10.5532
LeftShoulder1  1.43398 -1.40363 -22.9251
LeftArm  -8.50832 2.05349 -20.8181
LeftForeArm  24.6345 -45.5036 -9.66106
LeftHand  0.11902 -1.79244 -1.77377
RightShoulder  6.02847 9.10416 41.636
RightArm  -10.5599 5.89308 3.29373
RightForeArm  29.8802 59.436 16.4387
RightHand  -0.550469 1.00718 -10.107
LeftUpLeg  -20.582 15.1593 10.1749
LeftLeg  65.0865 -3.02715 -6.43968
LeftFoot  -27.324 -0.885744 -7.47058
LeftToes  1.48244e-010 1.61973e-010 3.308e-011
94
root  44.4459 33.8094 22.8764 -6.48116 40.6564 1.09108
RightUpLeg  -37.8137 -21.5645 -8.89144
RightLeg  48.271 -4.48908 -5.71646
RightFoot  2.42857 -0.563345 4.79953
RightToes  7.56698e-010 0 -3.6325e-017
Spine  20.9246 0.0982447 0.31126
Spine1  -0.777593 -0.200673 3.61301
HEad  -4.12205 -44.9668 11.1624
LeftShoulder1  1.38072 -1.16054 -23.3246
LeftArm  -7.46534 11.4259 -20.809
LeftForeArm  26.5807 -53.2082 -12.8749
LeftHand  0.124055 -0.970776 -2.18084
RightShoulder  6.06343 9.76033 39.6452
RightArm  -7.62501 6.45078 3.51935
RightForeArm  34.395 58.4206 15.2528
RightHand  -0.553253 1.75407 -9.15241
LeftUpLeg  -16.9772 15.3816 13.1394
LeftLeg  65.1578 -3.65846 -7.93262
LeftFoot  -27.314 -1.41785 -11.245
LeftToes  1.48244e-010 1.61973e-010 3.308e-011
95
root  44.5582 33.8565 24.2883 -5.32626 38.7917 2.26464
RightUpLeg  -40.9748 -23.9538 -7.99502
RightLeg  54.2903 -1.82535 -3.14135
RightFoot  3.69604 -0.752216 5.88556
RightToes  7.56698e-010 0 -3.6325e-017
Spine  21.0002 -0.00320098 0.0617706
Spine1  -2.0313 -0.25442 3.54445
HEad  -3.21338 -45.6383 10.4418
LeftShoulder1  1.3418 -0.932706 -23.9987
LeftArm  -4.31061 19.1319 -24.0766
LeftForeArm  31.4459 -61.0153 -17.5044
LeftHand  0.177248 -0.573684 -3.41295
RightShoulder  5.58106 9.47325 37.044
RightArm  -4.86535 7.21398 4.19541
RightForeArm  35.9751 57.8793 14.7376
RightHand  -0.610264 1.95882 -9.81019
LeftUpLeg  -13.4828 15.2419 14.2071
LeftLeg  62.9497 -3.6851 -7.20067
LeftFoot  -28.438 -1.92278 -13.8702
LeftToes  1.48244e-010 1.61973e-010 3.308e-011
96
root  44.7213 33.8532 25.6458 -3.92575 35.2498 3.94003
RightUpLeg  -44.8147 -24.3281 -7.61821
RightLeg  59.8721 -0.578254 -1.57766
RightFoot  7.09751 -1.60555 10.1688
RightToes  7.56698e-010 0 -3.6325e-017
Spine  21.0472 0.0628711 1.08313
Spine1  -3.21797 0.441289 1.13455
HEad  -3.70978 -45.8115 8.9892
LeftShoulder1  1.37927 -0.895465 -25.1576
LeftArm  -1.00766 23.7566 -30.3813
LeftForeArm  39.1498 -66.5876 -22.2737
LeftHand  0.317942 -1.15895 -5.55027
RightShoulder  5.28532 9.83183 33.7233
RightArm  -4.6204 9.15831 3.82715
RightForeArm  36.7169 57.0525 14.1436
RightHand  -0.625878 2.14524 -9.8208
LeftUpLeg  -8.87895 15.6517 14.2596
LeftLeg  59.654 -3.08256 -5.11745
LeftFoot  -30.2843 -2.56446 -16.3662
LeftToes  1.48244e-010 1.61973e-010 3.308e-011
